<svg xmlns="http://www.w3.org/2000/svg" xmlns:xlink="http://www.w3.org/1999/xlink" version="1.1" 
    preserveAspectRatio="xMinYMin meet" x="0px" y="0px" width="7px" height="7px" viewBox="0 0 7 7" style="&#10; fill: white;">
    <path d="M0 0h1v1h-1v-1z"/>

    <path d="M6 0h1v1h-1v-1z"/>

    <path d="M1 1h1v1h-1v-1z"/>
    <path d="M5 1h1v1h-1v-1z"/>

    <path d="M2 2h1v1h-1v-1z"/>
    <path d="M4 2h1v1h-1v-1z"/>
    <path d="M3 3h1v1h-1v-1z"/>
    <path d="M2 4h1v1h-1v-1z"/>

    <path d="M4 4h1v1h-1v-1z"/>
    <path d="M1 5h1v1h-1v-1z"/>
    <path d="M5 5h1v1h-1v-1z"/>
    <path d="M0 6h1v1h-1v-1z"/>
    <path d="M6 6h1v1h-1v-1z"/>
</svg>